<svg width="500" height="500" viewBox="0 0 500 500" fill="none" xmlns="http://www.w3.org/2000/svg">
<path d="M147.162 240.919L91.5349 296.524C89.4884 298.571 89.4884 301.88 91.5349 303.905C93.5815 305.93 96.8908 305.952 98.9155 303.905L115.201 287.62C116.812 288.621 118.532 289.405 120.383 289.906C130.136 292.562 145.311 292.932 160.116 283.113C162.772 281.349 161.379 277.583 158.2 277.583H154.695C153.584 277.583 152.692 276.69 152.692 275.58C152.692 274.687 153.28 273.925 154.107 273.664L175.378 267.285C176.118 267.067 176.771 266.61 177.207 265.957C178.165 264.563 179.079 263.148 179.95 261.69C181.3 259.447 179.623 256.682 177.011 256.682H168.607C167.497 256.682 166.604 255.789 166.604 254.679C166.604 253.786 167.192 253.024 168.019 252.763L185.632 247.473C186.634 247.168 187.461 246.428 187.853 245.448C194.189 229.467 197.084 212.725 197.977 201.991C198.151 199.836 197.324 197.724 195.8 196.2C194.276 194.676 192.164 193.849 190.009 194.023C171.764 195.503 136.276 202.797 116.442 222.631C99.0026 240.07 98.872 259.795 102.051 271.574C102.508 273.294 104.663 273.664 105.926 272.401L141.741 236.609C143.09 235.259 145.311 235.259 146.661 236.609C147.837 237.784 147.989 239.569 147.14 240.919H147.162Z" fill="white"/>
<path d="M300.894 238.043L302.754 231.422C302.822 231.178 302.856 231.007 302.856 230.909C302.856 230.157 302.212 229.767 300.923 229.737V229.195H307.837V229.737H307.705C307.295 229.737 306.968 229.786 306.724 229.884C306.235 230.079 305.854 230.67 305.581 231.656L301.377 246.773C301.318 246.988 301.289 247.159 301.289 247.286C301.289 248.038 301.929 248.429 303.208 248.458V249H296.309V248.458H296.484C297.129 248.458 297.603 248.292 297.905 247.96C298.149 247.696 298.369 247.223 298.564 246.539L300.63 239.098H292.017L289.863 246.773C289.805 246.979 289.775 247.149 289.775 247.286C289.775 248.038 290.415 248.429 291.694 248.458V249H284.795V248.458H284.971C285.615 248.458 286.089 248.292 286.392 247.96C286.626 247.706 286.841 247.232 287.036 246.539L291.299 231.422C291.357 231.217 291.387 231.046 291.387 230.909C291.387 230.157 290.747 229.767 289.468 229.737V229.195H296.367V229.737H296.25C295.83 229.737 295.498 229.786 295.254 229.884C294.785 230.069 294.409 230.66 294.126 231.656L292.295 238.043H300.894ZM320.684 240.094C320.684 242.174 319.878 244.132 318.267 245.968C316.255 248.253 314.092 249.396 311.777 249.396C310.586 249.396 309.58 249.024 308.76 248.282C307.91 247.511 307.485 246.539 307.485 245.367C307.485 243.893 307.993 242.315 309.009 240.636C309.976 239.054 311.108 237.823 312.407 236.944C313.745 236.046 315.127 235.597 316.553 235.597C317.764 235.597 318.765 236.051 319.556 236.959C320.308 237.818 320.684 238.863 320.684 240.094ZM316.099 236.227C314.546 236.227 313.101 237.423 311.763 239.815C310.552 241.974 309.946 243.956 309.946 245.763C309.946 246.603 310.112 247.296 310.444 247.843C310.854 248.497 311.45 248.824 312.231 248.824C314.272 248.824 315.962 247.135 317.3 243.756C317.944 242.115 318.267 240.582 318.267 239.156C318.267 237.203 317.544 236.227 316.099 236.227ZM342.803 245.909C341.289 248.194 339.897 249.337 338.628 249.337C337.71 249.337 337.251 248.814 337.251 247.77C337.251 247.467 337.31 247.105 337.427 246.686L339.653 238.746C339.751 238.395 339.8 238.111 339.8 237.896C339.8 237.34 339.531 237.062 338.994 237.062C338.691 237.062 338.428 237.14 338.203 237.296C336.865 238.233 335.605 239.659 334.424 241.573C333.32 243.331 332.534 245.074 332.065 246.803L331.465 249H329.297L332.388 238.746C332.485 238.424 332.534 238.15 332.534 237.926C332.534 237.35 332.266 237.062 331.729 237.062C331.436 237.062 331.177 237.14 330.952 237.296C329.614 238.233 328.35 239.659 327.158 241.573C326.055 243.331 325.269 245.074 324.8 246.803L324.199 249H322.017L324.976 238.409C325.083 238.028 325.137 237.74 325.137 237.545C325.137 237.213 324.966 237.013 324.624 236.944C324.536 236.925 324.233 236.915 323.716 236.915H323.394V236.373L327.744 235.626C327.764 235.812 327.773 235.929 327.773 235.978C327.773 236.192 327.7 236.554 327.554 237.062L326.294 241.441C326.997 240.377 327.559 239.576 327.979 239.039C328.867 237.896 329.658 237.086 330.352 236.607C331.318 235.934 332.109 235.597 332.725 235.597C333.281 235.597 333.735 235.826 334.087 236.285C334.399 236.705 334.556 237.203 334.556 237.779C334.556 237.955 334.521 238.194 334.453 238.497L333.794 241.441C334.487 240.387 335.049 239.586 335.479 239.039C336.357 237.906 337.148 237.096 337.852 236.607C338.809 235.934 339.59 235.597 340.195 235.597C340.742 235.597 341.187 235.821 341.528 236.271C341.831 236.671 341.982 237.154 341.982 237.721C341.982 237.955 341.943 238.214 341.865 238.497L339.668 246.524C339.561 246.915 339.507 247.188 339.507 247.345C339.507 247.726 339.653 247.916 339.946 247.916C340.483 247.916 341.304 247.14 342.407 245.587L342.803 245.909ZM357.583 235.626L354.697 245.733C354.375 246.866 354.214 247.447 354.214 247.477C354.214 247.691 354.346 247.799 354.609 247.799C354.814 247.799 355.103 247.618 355.474 247.257C355.815 246.915 356.328 246.407 357.012 245.733L357.363 246.026C356.387 247.247 355.64 248.077 355.122 248.517C354.478 249.063 353.857 249.337 353.262 249.337C352.363 249.337 351.914 248.854 351.914 247.887C351.914 247.555 351.992 247.164 352.148 246.715L352.72 245.074C351.655 246.49 350.757 247.501 350.024 248.106C349.067 248.897 347.983 249.293 346.772 249.293C345.874 249.293 345.146 248.922 344.59 248.18C344.072 247.506 343.813 246.71 343.813 245.792C343.813 243.956 344.492 242.096 345.85 240.211C346.68 239.059 347.671 238.058 348.823 237.208C350.21 236.173 351.489 235.655 352.661 235.655C353.569 235.655 354.268 236.202 354.756 237.296C354.775 237.354 354.814 237.447 354.873 237.574L355.269 235.978L357.583 235.626ZM354.214 238.468C354.214 237.052 353.716 236.344 352.72 236.344C350.63 236.344 348.813 238.097 347.271 241.603C346.626 243.067 346.304 244.396 346.304 245.587C346.304 247.042 346.904 247.77 348.105 247.77C348.877 247.77 349.561 247.521 350.156 247.022C350.547 246.681 351.021 246.1 351.577 245.279C353.335 242.662 354.214 240.392 354.214 238.468ZM361.304 248.707L360.249 252.867C360.171 253.18 360.132 253.429 360.132 253.614C360.132 254.278 360.591 254.61 361.509 254.61H362.021V255.152H356.104V254.61C357.109 254.61 357.681 254.332 357.817 253.775L361.714 238.409C361.802 238.067 361.846 237.799 361.846 237.604C361.846 237.262 361.675 237.047 361.333 236.959C361.216 236.93 360.903 236.915 360.396 236.915H360.073V236.373L364.424 235.626C364.443 235.792 364.453 235.89 364.453 235.919C364.453 236.046 364.38 236.427 364.233 237.062L363.853 238.717C364.849 237.643 365.64 236.891 366.226 236.461C366.987 235.904 367.866 235.626 368.862 235.626C370.044 235.626 370.933 236.041 371.528 236.871C372.046 237.604 372.305 238.585 372.305 239.815C372.305 240.353 372.246 240.855 372.129 241.324C371.592 243.492 370.527 245.343 368.936 246.876C367.207 248.536 365.283 249.366 363.164 249.366C362.275 249.366 361.655 249.146 361.304 248.707ZM361.655 247.652C361.655 248.473 362.148 248.883 363.135 248.883C364.756 248.883 366.216 247.97 367.515 246.144C368.97 244.103 369.697 241.925 369.697 239.61C369.697 237.931 368.96 237.091 367.485 237.091C366.479 237.091 365.479 237.701 364.482 238.922C364.209 239.254 363.96 239.674 363.735 240.182C363.218 241.344 362.637 243.292 361.992 246.026C361.768 246.983 361.655 247.525 361.655 247.652ZM381.255 230.704C381.255 231.114 381.118 231.466 380.845 231.759C380.581 232.052 380.244 232.198 379.834 232.198C379.434 232.198 379.097 232.052 378.823 231.759C378.56 231.466 378.428 231.114 378.428 230.704C378.428 230.304 378.56 229.952 378.823 229.649C379.087 229.347 379.414 229.195 379.805 229.195C380.225 229.195 380.571 229.342 380.845 229.635C381.118 229.928 381.255 230.284 381.255 230.704ZM380.2 245.909C378.696 248.194 377.305 249.337 376.025 249.337C375.107 249.337 374.648 248.795 374.648 247.711C374.648 247.379 374.697 247.037 374.795 246.686L377.08 238.409C377.178 238.058 377.227 237.77 377.227 237.545C377.227 237.125 376.855 236.915 376.113 236.915H375.483V236.373L379.834 235.626C379.854 235.792 379.863 235.899 379.863 235.948C379.863 236.192 379.795 236.563 379.658 237.062L377.08 246.48C376.963 246.91 376.904 247.198 376.904 247.345C376.904 247.726 377.051 247.916 377.344 247.916C377.881 247.916 378.701 247.14 379.805 245.587L380.2 245.909ZM384.375 253.526C385.615 252.56 386.768 251.202 387.832 249.454C387.676 247.442 387.466 245.821 387.202 244.591C386.772 242.569 386.162 240.567 385.371 238.585C384.883 237.364 384.224 236.754 383.394 236.754C383.267 236.754 383.003 236.788 382.603 236.856L382.251 236.915L382.222 236.461L386.03 235.772C386.226 235.733 386.377 235.714 386.484 235.714C386.641 235.704 386.758 235.812 386.836 236.036C387.52 237.892 388.032 239.435 388.374 240.665C388.735 241.964 389.155 243.937 389.634 246.583C391.948 243.009 393.105 240.465 393.105 238.951C393.105 238.6 392.979 238.331 392.725 238.146C391.885 237.53 391.465 237.047 391.465 236.695C391.465 236.393 391.597 236.139 391.86 235.934C392.124 235.729 392.412 235.626 392.725 235.626C393.779 235.626 394.307 236.324 394.307 237.721C394.307 238.463 394.028 239.503 393.472 240.841C392.593 242.96 391.343 245.318 389.722 247.916C387.71 251.139 385.928 253.312 384.375 254.435C383.711 254.913 383.11 255.152 382.573 255.152C381.558 255.152 381.05 254.742 381.05 253.922C381.05 253.102 381.44 252.691 382.222 252.691C382.515 252.691 382.852 252.784 383.232 252.97L384.375 253.526ZM407.637 237.926C407.637 238.297 407.51 238.639 407.256 238.951C407.012 239.254 406.709 239.405 406.348 239.405C406.035 239.405 405.771 239.288 405.557 239.054C405.342 238.819 405.234 238.546 405.234 238.233C405.234 237.97 405.303 237.667 405.439 237.325C405.586 236.974 405.659 236.754 405.659 236.666C405.659 236.266 405.269 236.065 404.487 236.065C403.14 236.065 401.919 236.695 400.825 237.955C400.19 238.678 399.619 239.713 399.111 241.061C398.613 242.408 398.364 243.565 398.364 244.532C398.364 245.489 398.608 246.324 399.097 247.037C399.663 247.848 400.4 248.253 401.309 248.253C402.715 248.253 404.146 247.442 405.601 245.821L406.084 246.114C404.404 248.263 402.524 249.337 400.444 249.337C399.058 249.337 397.969 248.971 397.178 248.238C396.396 247.506 396.006 246.451 396.006 245.074C396.006 242.672 396.797 240.523 398.379 238.629C400.049 236.627 402.065 235.626 404.429 235.626C405.278 235.626 405.996 235.792 406.582 236.124C407.285 236.534 407.637 237.135 407.637 237.926Z" fill="white"/>
<path d="M218.035 277.195H221.727C224.174 277.195 226.245 277.658 227.938 278.582C230.034 279.728 231.082 281.427 231.082 283.68C231.082 285.893 230.307 287.775 228.758 289.324C226.974 291.108 224.363 292 220.926 292H206.043V291.004C206.694 291.004 207.306 290.822 207.879 290.457C208.465 290.092 208.836 289.604 208.992 288.992L214.168 269.637C214.35 268.96 214.441 268.452 214.441 268.113C214.441 267.423 214.155 266.967 213.582 266.746C213.296 266.629 212.703 266.551 211.805 266.512V265.516H231.766L230.516 273.113H229.48C229.415 270.6 229.018 268.96 228.289 268.191C227.651 267.527 226.167 267.195 223.836 267.195C222.651 267.195 221.857 267.286 221.453 267.469C220.841 267.755 220.398 268.4 220.125 269.402L218.035 277.195ZM217.684 278.445L215.281 287.234C214.982 288.328 214.832 289.064 214.832 289.441C214.832 290.327 215.874 290.77 217.957 290.77C219.155 290.77 220.171 290.62 221.004 290.32C222.332 289.839 223.374 288.81 224.129 287.234C224.767 285.88 225.086 284.415 225.086 282.84C225.086 279.91 223.51 278.445 220.359 278.445H217.684ZM235.594 274.754C236.206 274.676 236.98 274.559 237.918 274.402C238.439 274.311 239.669 274.07 241.609 273.68C242.456 276.896 243.107 279.682 243.562 282.039L244.637 287.527C245.092 286.746 245.587 285.835 246.121 284.793C246.134 284.754 246.668 283.491 247.723 281.004C247.918 280.535 248.035 280.04 248.074 279.52L247.918 279.031C246.59 277.872 245.926 276.889 245.926 276.082C245.926 275.392 246.134 274.819 246.551 274.363C246.98 273.908 247.54 273.68 248.23 273.68C249.806 273.68 250.594 274.624 250.594 276.512C250.594 278.504 249.513 281.544 247.352 285.633C245.646 288.875 243.901 291.688 242.117 294.07C239.07 298.133 236.349 300.164 233.953 300.164C233.224 300.164 232.599 299.93 232.078 299.461C231.544 298.992 231.277 298.4 231.277 297.684C231.277 297.046 231.492 296.531 231.922 296.141C232.339 295.75 232.872 295.555 233.523 295.555C234.057 295.555 234.695 295.809 235.438 296.316C236.062 296.746 236.531 296.961 236.844 296.961C238.133 296.961 239.37 295.75 240.555 293.328C240.607 293.055 240.633 292.664 240.633 292.156C240.633 289.943 239.767 285.359 238.035 278.406C237.827 277.573 237.664 277.033 237.547 276.785C237.247 276.16 236.837 275.848 236.316 275.848C236.238 275.848 236.115 275.854 235.945 275.867C235.789 275.88 235.672 275.887 235.594 275.887V274.754ZM248.289 300.125V299.129H248.738C249.533 299.129 250.132 298.823 250.535 298.211C250.77 297.846 251.01 297.176 251.258 296.199L256.102 277C256.102 276.974 256.108 276.935 256.121 276.883C256.134 276.831 256.141 276.792 256.141 276.766C256.141 276.167 255.405 275.848 253.934 275.809V274.754C255.314 274.611 256.635 274.454 257.898 274.285C257.951 274.272 259.174 274.07 261.57 273.68L260.379 277.84C262.202 275.066 264.214 273.68 266.414 273.68C267.807 273.68 268.882 274.155 269.637 275.105C270.34 275.991 270.691 277.143 270.691 278.562C270.691 280.581 270.19 282.651 269.188 284.773C268.237 286.792 266.993 288.523 265.457 289.969C263.634 291.674 261.792 292.527 259.93 292.527C259.044 292.527 258.087 292.234 257.059 291.648L255.574 297.879C255.574 298.712 256.427 299.129 258.133 299.129V300.125H248.289ZM257.605 288.484C257.527 288.745 257.488 289.038 257.488 289.363C257.488 290.535 258.035 291.121 259.129 291.121C259.962 291.121 260.698 290.75 261.336 290.008C263.315 287.716 264.715 284.539 265.535 280.477C265.639 279.956 265.691 279.409 265.691 278.836C265.691 277.312 265.145 276.551 264.051 276.551C263.139 276.551 262.247 277.091 261.375 278.172C260.672 279.044 260.164 280.001 259.852 281.043L257.605 288.484ZM291.57 287.352C290.724 288.823 289.682 290.118 288.445 291.238C287.495 292.098 286.336 292.527 284.969 292.527C283.367 292.527 282.566 291.688 282.566 290.008C282.566 288.81 283.113 286.473 284.207 282.996C285.145 280.014 285.613 278.257 285.613 277.723C285.613 276.785 285.255 276.316 284.539 276.316C282.729 276.316 281.115 278.68 279.695 283.406L278.445 287.566C277.977 289.116 277.482 290.242 276.961 290.945C276.167 292 275.118 292.527 273.816 292.527C272.879 292.527 272.098 292.28 271.473 291.785C270.796 291.238 270.457 290.509 270.457 289.598C270.457 288.908 270.672 288.335 271.102 287.879C271.518 287.423 272.065 287.195 272.742 287.195C273.888 287.195 274.461 287.742 274.461 288.836C274.461 289.148 274.389 289.454 274.246 289.754C274.168 289.988 274.129 290.138 274.129 290.203C274.129 290.581 274.344 290.77 274.773 290.77C275.633 290.77 276.551 289.129 277.527 285.848L278.66 282.039C279.311 279.826 280.301 277.951 281.629 276.414C283.257 274.539 285.079 273.602 287.098 273.602C289.572 273.602 290.809 274.708 290.809 276.922C290.809 277.443 290.529 278.608 289.969 280.418C289.591 281.642 289.207 282.859 288.816 284.07L287.684 287.918C287.527 288.452 287.449 288.855 287.449 289.129C287.449 289.467 287.651 289.637 288.055 289.637C288.745 289.637 289.624 288.693 290.691 286.805L291.57 287.352ZM307.742 274.324L312.137 274.07L308.25 287.273C307.99 288.159 307.859 288.777 307.859 289.129C307.859 289.546 308.087 289.754 308.543 289.754C308.999 289.754 309.715 289.077 310.691 287.723C310.743 287.645 310.945 287.391 311.297 286.961L312.137 287.566C311.251 288.882 310.464 289.891 309.773 290.594C308.484 291.909 307.273 292.566 306.141 292.566C305.294 292.566 304.63 292.28 304.148 291.707C303.667 291.134 303.426 290.418 303.426 289.559C303.426 288.908 303.621 288.204 304.012 287.449C301.98 290.835 299.878 292.527 297.703 292.527C296.31 292.527 295.21 292.026 294.402 291.023C293.66 290.086 293.289 288.908 293.289 287.488C293.289 286.043 293.641 284.454 294.344 282.723C295.268 280.457 296.525 278.478 298.113 276.785C300.079 274.715 302.098 273.68 304.168 273.68C305.066 273.68 305.737 273.947 306.18 274.48C306.466 274.819 306.746 275.457 307.02 276.395L307.742 274.324ZM306.141 277.566C306.141 276.121 305.607 275.398 304.539 275.398C302.977 275.398 301.414 277.345 299.852 281.238C298.732 284.025 298.172 286.095 298.172 287.449C298.172 288.022 298.302 288.523 298.562 288.953C298.875 289.461 299.305 289.715 299.852 289.715C300.607 289.715 301.264 289.396 301.824 288.758C302.983 287.456 303.992 285.698 304.852 283.484C305.711 281.258 306.141 279.285 306.141 277.566ZM323.211 282.156C324.201 281.805 325.086 280.952 325.867 279.598L327.586 276.648C328.198 275.607 328.667 274.917 328.992 274.578C329.591 273.979 330.333 273.68 331.219 273.68C332.924 273.68 333.777 274.52 333.777 276.199C333.777 276.889 333.595 277.469 333.23 277.938C332.827 278.432 332.286 278.68 331.609 278.68C330.971 278.68 330.47 278.361 330.105 277.723C329.871 277.319 329.617 277.117 329.344 277.117C328.94 277.117 328.432 277.716 327.82 278.914C327.482 279.565 327.026 280.275 326.453 281.043C326.023 281.616 325.398 282.124 324.578 282.566V282.605C325.49 282.645 326.18 282.814 326.648 283.113C327.169 283.452 327.573 284.038 327.859 284.871L328.816 287.645C329.155 288.634 329.65 289.129 330.301 289.129C330.809 289.129 331.486 288.419 332.332 287L333.25 287.391C332.352 288.992 331.583 290.132 330.945 290.809C329.865 291.954 328.673 292.527 327.371 292.527C326.316 292.527 325.581 292.195 325.164 291.531C324.982 291.245 324.708 290.411 324.344 289.031L323.426 285.594C323.048 284.174 322.221 283.445 320.945 283.406L318.621 292H313.816L317.723 277.977C317.866 277.469 317.938 277.117 317.938 276.922C317.938 276.219 317.215 275.848 315.77 275.809V274.754C315.783 274.754 317.195 274.585 320.008 274.246C320.984 274.129 322.176 273.94 323.582 273.68L321.18 282.449C322.143 282.397 322.82 282.299 323.211 282.156ZM344.129 292V291.004C345.691 290.704 346.635 289.969 346.961 288.797L352.566 268.328C352.527 267.651 352.365 267.202 352.078 266.98C351.844 266.798 351.368 266.688 350.652 266.648C350.34 266.635 350.014 266.59 349.676 266.512V265.516H362.879C364.624 265.516 366.147 266.062 367.449 267.156C368.829 268.315 369.52 269.754 369.52 271.473C369.52 274.038 368.367 276.056 366.062 277.527C364.07 278.803 361.72 279.441 359.012 279.441C358.23 279.441 357.039 279.376 355.438 279.246L353.133 287.957C352.964 288.595 352.879 289.09 352.879 289.441C352.879 289.78 352.944 290.047 353.074 290.242C353.296 290.581 354.194 290.835 355.77 291.004V292H344.129ZM355.848 277.996L357.449 278.074C359.493 278.074 360.997 277.475 361.961 276.277C362.508 275.6 362.957 274.663 363.309 273.465C363.634 272.358 363.797 271.323 363.797 270.359C363.797 269.396 363.497 268.556 362.898 267.84C362.26 267.098 361.466 266.727 360.516 266.727C359.799 266.727 359.266 266.948 358.914 267.391C358.68 267.69 358.458 268.224 358.25 268.992L355.848 277.996ZM375.867 286.648C376.688 286.648 377.326 286.941 377.781 287.527C378.237 288.1 378.38 288.79 378.211 289.598C378.029 290.418 377.586 291.121 376.883 291.707C376.18 292.28 375.418 292.566 374.598 292.566C373.79 292.566 373.159 292.28 372.703 291.707C372.247 291.121 372.111 290.418 372.293 289.598C372.462 288.777 372.898 288.081 373.602 287.508C374.305 286.935 375.06 286.648 375.867 286.648ZM380.73 283.289C380.73 278.706 382.332 274.552 385.535 270.828C388.882 266.922 392.814 264.969 397.332 264.969C400.184 264.969 402.508 265.828 404.305 267.547C406.115 269.266 407.02 271.538 407.02 274.363C407.02 277.332 406.173 280.268 404.48 283.172C402.905 285.88 400.841 288.159 398.289 290.008C395.789 291.818 393.016 292.723 389.969 292.723C387.26 292.723 385.04 291.831 383.309 290.047C381.59 288.25 380.73 285.997 380.73 283.289ZM397.215 266.277C395.392 266.277 393.764 267.117 392.332 268.797C390.783 270.607 389.038 274.637 387.098 280.887C386.616 282.436 386.375 284.077 386.375 285.809C386.375 289.507 387.749 291.355 390.496 291.355C392.632 291.355 394.474 290.184 396.023 287.84C397.456 285.678 398.68 283.029 399.695 279.891C400.737 276.648 401.258 273.79 401.258 271.316C401.258 267.957 399.91 266.277 397.215 266.277Z" fill="white"/>
</svg>
